<svg xmlns="http://www.w3.org/2000/svg" version="1.1" xmlns:xlink="http://www.w3.org/1999/xlink" xmlns:svgjs="http://svgjs.com/svgjs" viewBox="0 0 640 400" class="" xmlns:xlink="http://www.w3.org/1999/xlink" xmlns:svgjs="http://svgjs.dev/svgjs"><g viewBox="0 0 640 400"><g><g><g><svg viewBox="0 0 640 400" data-background-color="#ffffff" preserveAspectRatio="xMidYMid meet" height="400" width="640" xmlns="http://www.w3.org/2000/svg" xmlns:xlink="http://www.w3.org/1999/xlink"><rect width="640" height="400" x="0" y="0" opacity="1" fill="#ffffff" data-fill-palette-color="background" id="background"></rect><g id="tight-bounds" transform="matrix(1,0,0,1,122.24000000000001,60)"><svg viewBox="0 0 395.52 280" height="280" width="395.52"><g><svg viewBox="0 0 395.52 280" height="280" width="395.52"><g><svg viewBox="0 0 395.52 280" height="280" width="395.52"><g id="textblocktransform"><svg viewBox="0 0 395.52 280" height="280" width="395.52" id="textblock"><g><svg viewBox="0 0 395.52 280" height="280" width="395.52"><g transform="matrix(1,0,0,1,131.76336708925555,74.00420102436034)"><svg viewBox="0 0 131.99326582148888 131.99159795127932" height="131.99159795127932" width="131.99326582148888"><g><svg xmlns="http://www.w3.org/2000/svg" xmlns:xlink="http://www.w3.org/1999/xlink" version="1.1" x="0" y="0" viewBox="0 0 32.000404357910156 32" enable-background="new 0 0 32 32" xml:space="preserve" width="131.99326582148888" height="131.99159795127932" class="icon-o-0" data-fill-palette-color="accent" id="o-0"><g fill="#fbb168" data-fill-palette-color="accent"><path fill="#fbb168" d="M29.5 21h-2.691c-0.045-0.239-0.1-0.473-0.16-0.706l4.799-2.399c0.494-0.247 0.693-0.848 0.447-1.342-0.248-0.494-0.846-0.692-1.342-0.447l-4.578 2.288C24.229 14.626 20.42 12 16 12c-5.382 0-9.865 3.888-10.809 9H2.5C1.122 21 0 22.121 0 23.5c0 0.49 0.18 0.963 0.505 1.329L4 28.761V29.5C4 30.879 5.122 32 6.5 32h19c1.379 0 2.5-1.121 2.5-2.5v-0.739l3.494-3.932C31.82 24.463 32 23.99 32 23.5 32 22.121 30.879 21 29.5 21zM25.799 21h-0.562l0.498-0.25C25.754 20.834 25.781 20.915 25.799 21zM16 13c4.029 0 7.5 2.4 9.082 5.841l-0.891 0.445C22.775 16.171 19.645 14 16 14c-4.282 0-7.859 2.993-8.77 7H6.202C7.131 16.441 11.171 13 16 13zM20.576 21c-0.773-1.763-2.531-3-4.576-3s-3.802 1.237-4.576 3H10.35c0.826-2.326 3.043-4 5.65-4 2.465 0 4.588 1.496 5.508 3.627L20.764 21H20.576zM16 20c-0.883 0-1.67 0.391-2.22 1h-1.224c0.694-1.189 1.97-2 3.444-2 1.473 0 2.75 0.811 3.443 2h-1.225C17.67 20.391 16.883 20 16 20zM16 16c-3.165 0-5.842 2.112-6.705 5H8.263c0.892-3.444 4.017-6 7.737-6 3.246 0 6.043 1.948 7.295 4.734l-0.893 0.446C21.314 17.723 18.855 16 16 16zM26 28v1.5c0 0.276-0.225 0.5-0.5 0.5h-19C6.224 30 6 29.776 6 29.5V28l-4-4.5C2 23.224 2.224 23 2.5 23H5h1 1 1 1 1 1 1 1 6 1 1 1 1 1 1 1 1 2.5c0.275 0 0.5 0.224 0.5 0.5L26 28z" data-fill-palette-color="accent"></path><path fill="#fbb168" d="M7.977 11.712c0.003 0.006 0.005 0.012 0.008 0.018 0 0 0.001 0 0.002 0C8.07 11.89 8.236 12 8.43 12c0.277 0 0.502-0.226 0.502-0.503 0-0.043-0.007-0.085-0.018-0.125 0.002-0.007 0.002-0.013 0-0.02-0.375-0.882-0.019-1.85 0.419-2.892 0.473-1.126 0.98-2.376 0.422-3.647C9.684 4.63 9.507 4.5 9.299 4.5c-0.271 0-0.49 0.22-0.49 0.49 0 0.06 0.012 0.116 0.032 0.169 0 0.002 0 0.004 0.001 0.006 0.001 0.003 0.002 0.006 0.003 0.009C8.847 5.178 8.848 5.182 8.85 5.186c0.404 0.909 0.013 1.841-0.428 2.893C7.956 9.188 7.44 10.417 7.959 11.67 7.965 11.685 7.97 11.698 7.977 11.712z" data-fill-palette-color="accent"></path><path fill="#fbb168" d="M20.154 11.566c0.004 0.006 0.006 0.012 0.008 0.018h0.002c0.084 0.16 0.25 0.271 0.443 0.271 0.277 0 0.504-0.226 0.504-0.503 0-0.043-0.008-0.085-0.018-0.125 0.002-0.007 0.002-0.013-0.002-0.02-0.373-0.882-0.018-1.85 0.42-2.892 0.473-1.126 0.98-2.376 0.422-3.647-0.072-0.184-0.248-0.313-0.457-0.313-0.27 0-0.49 0.22-0.49 0.49 0 0.06 0.014 0.116 0.033 0.169 0 0.002 0 0.004 0 0.006 0.002 0.003 0.002 0.006 0.004 0.009 0.002 0.004 0.004 0.008 0.004 0.012 0.404 0.909 0.014 1.841-0.428 2.893-0.465 1.109-0.98 2.339-0.461 3.592C20.143 11.539 20.148 11.553 20.154 11.566z" data-fill-palette-color="accent"></path><path fill="#fbb168" d="M15.019 7.212c0.003 0.006 0.005 0.012 0.008 0.018 0 0 0.001 0 0.002 0 0.084 0.16 0.25 0.271 0.443 0.271 0.277 0 0.502-0.226 0.502-0.503 0-0.043-0.007-0.085-0.018-0.125 0.002-0.007 0.002-0.013 0-0.02-0.375-0.882-0.019-1.85 0.419-2.892 0.473-1.126 0.98-2.376 0.422-3.647C16.725 0.13 16.549 0 16.34 0c-0.27 0-0.49 0.22-0.49 0.49 0 0.06 0.012 0.116 0.032 0.169 0 0.002 0 0.004 0.001 0.006 0.001 0.003 0.002 0.006 0.003 0.009 0.001 0.004 0.003 0.008 0.004 0.012 0.404 0.909 0.013 1.841-0.428 2.893-0.466 1.109-0.982 2.339-0.462 3.592C15.007 7.185 15.012 7.198 15.019 7.212z" data-fill-palette-color="accent"></path></g></svg></g></svg></g><path d="M72.078 192.603L68.652 183.988 91.108 175.058 94.468 173.206 105.79 201.678 99.774 204.07 92.056 184.659 88.036 186.257 93.854 200.888 87.708 203.331 81.89 188.701ZM103.057 241.238L94.531 231.561C92.435 229.182 91.407 226.887 91.448 224.677 91.488 222.466 92.758 220.26 95.257 218.059V218.059L109.498 205.51 115.627 212.466 102.03 224.447C100.911 225.433 100.403 226.368 100.508 227.253 100.608 228.132 101.015 228.976 101.728 229.786V229.786L105.783 234.388C106.457 235.153 107.24 235.648 108.131 235.874 109.028 236.096 110.024 235.725 111.118 234.761V234.761L124.715 222.78 130.758 229.639 116.517 242.187C114.018 244.389 111.678 245.381 109.498 245.163 107.322 244.95 105.175 243.641 103.057 241.238ZM133.095 262.606L125 258.38 136.183 236.957 137.519 233.361 145.277 237.41 150.875 255.681 151.556 258.392 152.017 258.633 159.279 244.719 167.374 248.945 154.43 273.742 147.389 270.067 141.519 251.497 140.908 248.653 140.491 248.436ZM201.321 279.705L192.054 280 191.286 255.846 190.686 252.057 221.311 251.083 221.516 257.553 200.637 258.217 200.775 262.541 216.512 262.04 216.722 268.65 200.985 269.151ZM258.555 266.07L245.659 271.22C242.535 272.467 239.98 272.677 237.993 271.85 236.006 271.023 234.4 269.075 233.175 266.007V266.007L229.807 257.574C228.606 254.568 228.433 252.077 229.286 250.101 230.131 248.122 232.13 246.502 235.285 245.242V245.242L248.181 240.092C251.273 238.857 253.817 238.662 255.811 239.508 257.803 240.348 259.399 242.27 260.6 245.276V245.276L263.968 253.71C265.193 256.778 265.364 259.298 264.481 261.272 263.598 263.245 261.623 264.844 258.555 266.07ZM246.31 263.989V263.989L253.157 261.254C255.452 260.338 256.182 258.834 255.347 256.744V256.744L252.261 249.016C251.438 246.956 249.88 246.384 247.585 247.301V247.301L240.738 250.035C239.556 250.507 238.766 251.095 238.366 251.8 237.966 252.505 237.99 253.417 238.437 254.536V254.536L241.523 262.265C241.958 263.353 242.569 264.031 243.357 264.297 244.145 264.563 245.129 264.461 246.31 263.989ZM298.898 235.87L288.765 245.366C286.311 247.666 284.008 248.793 281.857 248.747 279.705 248.7 277.499 247.472 275.24 245.062V245.062L269.03 238.436C266.817 236.074 265.748 233.818 265.822 231.667 265.887 229.515 267.159 227.278 269.637 224.956V224.956L279.77 215.46C282.199 213.183 284.497 212.074 286.662 212.135 288.823 212.191 291.011 213.4 293.224 215.762V215.762L299.434 222.388C301.693 224.798 302.771 227.083 302.668 229.243 302.565 231.402 301.308 233.611 298.898 235.87ZM286.737 238.395V238.395L292.116 233.353C293.919 231.664 294.051 229.997 292.512 228.355V228.355L286.821 222.283C285.305 220.665 283.645 220.7 281.842 222.39V222.39L276.462 227.432C275.534 228.301 275.012 229.137 274.897 229.939 274.781 230.741 275.136 231.582 275.96 232.462V232.462L281.651 238.534C282.452 239.389 283.268 239.797 284.099 239.758 284.929 239.719 285.809 239.265 286.737 238.395ZM324.993 193.908L315.738 213.412 293.905 203.052 290.261 201.854 299.721 181.916C301.369 178.444 303.293 176.169 305.493 175.09 307.687 174.008 310.246 174.16 313.171 175.548V175.548L321.375 179.441C324.359 180.857 326.123 182.748 326.667 185.115 327.21 187.481 326.652 190.412 324.993 193.908ZM300.289 195.82L313.783 202.223 318.455 192.376C319.5 190.173 319.013 188.575 316.993 187.58V187.58L309.556 184.05C308.726 183.656 307.9 183.563 307.079 183.771 306.264 183.981 305.559 184.715 304.962 185.973V185.973Z" fill="#3c2c32" data-fill-palette-color="primary"></path><path d="M92.07 101.944L88.644 110.559 66.188 101.63 62.474 100.669 73.796 72.197 79.811 74.589 72.092 94 76.112 95.599 81.93 80.968 88.075 83.412 82.258 98.043ZM119.955 60.158L111.429 69.835C109.333 72.214 107.186 73.522 104.988 73.76 102.79 73.998 100.441 73.016 97.943 70.815V70.815L83.701 58.266 89.83 51.31 103.427 63.291C104.547 64.277 105.538 64.663 106.402 64.448 107.262 64.238 108.049 63.728 108.762 62.918V62.918L112.817 58.316C113.491 57.551 113.884 56.713 113.996 55.799 114.103 54.882 113.609 53.941 112.515 52.977V52.977L98.918 40.996 104.961 34.138 119.203 46.686C121.701 48.888 122.98 51.084 123.038 53.274 123.101 55.46 122.073 57.755 119.955 60.158ZM143.145 42.96L135.05 47.185 123.867 25.762 121.681 22.609 129.439 18.56 147.629 24.413 150.243 25.405 150.703 25.164 143.441 11.251 151.536 7.026 164.48 31.823 157.439 35.498 138.847 29.696 136.164 28.572 135.748 28.79ZM200.831 28.269L191.565 27.974 192.333 3.82 191.974 0 222.599 0.974 222.393 7.444 201.514 6.78 201.377 11.104 217.113 11.604 216.903 18.215 201.167 17.714ZM250.838 40.395L237.942 35.245C234.819 33.997 232.822 32.389 231.951 30.421 231.081 28.453 231.258 25.934 232.483 22.867V22.867L235.851 14.433C237.052 11.427 238.642 9.502 240.621 8.657 242.597 7.804 245.162 8.007 248.317 9.267V9.267L261.213 14.417C264.305 15.652 266.283 17.263 267.146 19.25 268.012 21.231 267.845 23.725 266.644 26.731V26.731L263.276 35.164C262.051 38.232 260.439 40.177 258.439 40.999 256.44 41.822 253.906 41.62 250.838 40.395ZM243.396 30.452V30.452L250.243 33.186C252.537 34.103 254.102 33.516 254.937 31.425V31.425L258.023 23.697C258.846 21.637 258.11 20.149 255.815 19.232V19.232L248.968 16.498C247.787 16.026 246.809 15.908 246.033 16.143 245.258 16.379 244.647 17.056 244.2 18.176V18.176L241.113 25.904C240.678 26.993 240.655 27.905 241.042 28.641 241.43 29.376 242.214 29.98 243.396 30.452ZM284.512 66.353L274.379 56.857C271.925 54.557 270.651 52.332 270.558 50.181 270.465 48.031 271.548 45.751 273.807 43.34V43.34L280.016 36.714C282.23 34.353 284.412 33.139 286.563 33.074 288.714 33 291.029 34.124 293.507 36.446V36.446L303.64 45.942C306.07 48.219 307.324 50.44 307.404 52.605 307.488 54.765 306.423 57.026 304.21 59.388V59.388L298 66.014C295.741 68.425 293.531 69.648 291.369 69.685 289.208 69.723 286.922 68.612 284.511 66.353ZM281.204 54.381V54.381L286.584 59.422C288.387 61.112 290.058 61.136 291.597 59.493V59.493L297.288 53.421C298.805 51.803 298.661 50.149 296.858 48.459V48.459L291.479 43.418C290.551 42.548 289.683 42.081 288.875 42.018 288.067 41.954 287.251 42.362 286.427 43.242V43.242L280.736 49.314C279.934 50.169 279.58 51.01 279.673 51.837 279.766 52.663 280.276 53.511 281.204 54.381ZM305.926 101.901L296.671 82.396 318.504 72.036 321.737 69.971 331.198 89.909C332.846 93.381 333.391 96.31 332.836 98.697 332.286 101.081 330.549 102.967 327.625 104.354V104.354L319.421 108.247C316.436 109.664 313.856 109.834 311.679 108.758 309.503 107.683 307.585 105.397 305.926 101.901ZM320.069 81.556L306.575 87.958 311.248 97.805C312.293 100.008 313.839 100.641 315.887 99.706V99.706L323.325 96.177C324.155 95.783 324.749 95.203 325.108 94.436 325.46 93.671 325.338 92.66 324.741 91.403V91.403Z" fill="#3c2c32" data-fill-palette-color="primary"></path><path d="M61.195 143.336C61.195 137.435 65.979 132.65 71.88 132.65 77.782 132.65 82.566 137.435 82.566 143.336 82.566 149.237 77.782 154.022 71.88 154.022 65.979 154.022 61.195 149.237 61.195 143.336ZM312.954 143.336C312.954 137.435 317.738 132.65 323.64 132.65 329.541 132.65 334.325 137.435 334.325 143.336 334.325 149.237 329.541 154.022 323.64 154.022 317.738 154.022 312.954 149.237 312.954 143.336Z" fill="#3c2c32" data-fill-palette-color="primary"></path></svg></g></svg></g></svg></g></svg></g><defs></defs></svg><rect width="395.52" height="280" fill="none" stroke="none" visibility="hidden"></rect></g></svg></g></g></g></g></svg>